<?xml version="1.0" standalone="no"?>
<!DOCTYPE svg PUBLIC "-//W3C//DTD SVG 20010904//EN"
 "http://www.w3.org/TR/2001/REC-SVG-20010904/DTD/svg10.dtd">
<svg version="1.0" xmlns="http://www.w3.org/2000/svg"
 width="816.000000pt" height="816.000000pt" viewBox="0 0 816.000000 816.000000"
 preserveAspectRatio="xMidYMid meet">
<metadata>
Created by potrace 1.14, written by Peter Selinger 2001-2017
</metadata>
<g transform="translate(0.000000,816.000000) scale(0.100000,-0.100000)"
fill="#000000" stroke="none">
<path d="M1315 7932 c-2 -2 -9 -5 -17 -6 -56 -12 -113 -57 -144 -116 -17 -33
-18 -69 -20 -535 0 -275 -4 -510 -8 -522 -7 -21 -11 -41 -21 -93 -8 -43 -24
-124 -30 -150 -3 -14 -8 -40 -10 -59 -3 -18 -7 -36 -9 -40 -3 -3 -7 -27 -11
-51 -3 -25 -8 -53 -11 -62 -8 -26 -15 -61 -19 -88 -1 -14 -8 -47 -15 -75 -6
-27 -13 -61 -15 -75 -2 -14 -21 -113 -43 -220 -22 -107 -43 -208 -45 -225 -3
-16 -13 -64 -22 -105 -9 -41 -18 -86 -20 -100 -2 -14 -18 -95 -35 -180 -18
-85 -34 -168 -37 -185 -6 -37 -11 -58 -13 -65 -1 -3 -3 -9 -4 -15 -2 -13 -17
-96 -21 -115 -2 -8 -8 -35 -14 -60 -5 -25 -12 -58 -15 -75 -3 -16 -8 -41 -12
-55 -3 -14 -7 -36 -9 -50 -1 -14 -8 -47 -15 -75 -6 -27 -13 -61 -15 -75 -4
-26 -58 -301 -74 -373 -5 -23 -14 -67 -20 -97 -6 -30 -13 -66 -16 -80 -3 -14
-8 -38 -11 -55 -3 -16 -12 -64 -20 -105 -9 -41 -18 -84 -20 -95 -2 -11 -6 -31
-9 -45 -3 -14 -8 -38 -10 -55 -3 -16 -16 -84 -30 -150 -13 -66 -26 -131 -29
-145 -2 -14 -9 -45 -15 -70 -5 -25 -12 -58 -15 -75 -14 -72 -18 -94 -33 -165
-8 -41 -17 -84 -19 -95 -2 -11 -6 -31 -9 -45 -3 -14 -7 -41 -10 -61 -2 -20 -9
-49 -15 -65 -6 -16 -11 -30 -10 -32 2 -4 -10 -71 -26 -147 -17 -78 -20 -93
-29 -150 -3 -22 -8 -48 -11 -57 -6 -21 -14 -55 -20 -93 -9 -51 -13 -69 -19
-95 -3 -14 -8 -36 -10 -50 -3 -22 -17 -92 -31 -155 -7 -36 -14 -69 -20 -105
-8 -40 -12 -61 -19 -92 -3 -13 -8 -38 -10 -57 -3 -18 -7 -36 -10 -40 -2 -4 -7
-30 -11 -57 -3 -27 -8 -52 -10 -55 -2 -3 -6 -21 -9 -40 -3 -19 -13 -68 -22
-109 -8 -41 -17 -84 -19 -95 -25 -135 -25 -125 -2 -129 7 -1 33 -9 58 -16 25
-8 47 -14 50 -15 4 0 89 -23 115 -30 6 -1 13 -3 17 -4 4 -1 27 -9 50 -17 24
-9 54 -17 68 -19 14 -2 39 -9 55 -15 17 -7 37 -13 45 -15 8 -2 35 -9 60 -16
25 -7 48 -13 53 -15 4 -1 9 -3 12 -4 3 -1 8 -3 13 -4 57 -13 119 -30 127 -35
6 -3 15 -6 20 -7 21 -3 102 -26 145 -41 25 -8 54 -17 65 -19 11 -2 106 -29
210 -59 105 -31 199 -58 211 -60 11 -3 68 -18 125 -35 57 -17 120 -34 139 -40
19 -5 64 -19 99 -30 35 -11 72 -20 82 -20 10 0 21 -5 24 -10 4 -6 12 -10 18
-9 7 1 19 0 27 -4 33 -13 270 -77 285 -77 8 0 15 -4 15 -8 0 -4 8 -8 18 -9 19
-1 20 -1 162 -43 58 -17 112 -32 120 -34 8 -2 41 -12 74 -21 32 -9 64 -18 70
-19 6 -1 38 -11 71 -21 70 -21 73 -22 103 -29 12 -3 27 -8 33 -12 7 -4 19 -8
28 -9 19 -2 70 -14 91 -22 8 -3 20 -7 25 -8 6 -2 30 -8 55 -15 25 -7 50 -13
55 -15 6 -1 18 -5 28 -10 23 -10 44 9 53 48 3 17 10 38 15 47 14 25 129 335
129 348 0 7 5 12 10 12 6 0 9 3 8 8 -3 10 23 85 33 96 5 6 9 19 9 31 0 12 5
26 12 33 7 7 8 12 3 12 -6 0 -4 4 3 9 7 4 14 18 15 29 1 12 5 22 9 22 4 0 7 3
6 8 -1 4 4 23 11 42 8 19 15 37 15 40 3 8 46 123 53 140 3 8 7 17 8 20 1 3 6
16 12 30 6 14 18 47 27 74 9 27 20 54 24 60 4 6 7 13 7 16 2 16 29 87 36 94 5
6 9 16 9 24 0 8 6 28 14 45 15 34 34 85 147 387 38 102 73 194 78 205 10 22
22 54 27 70 1 6 21 57 44 115 23 58 46 119 52 135 5 17 13 39 18 50 5 11 16
44 26 73 10 28 21 49 25 45 4 -5 19 -39 34 -78 15 -38 38 -98 51 -133 13 -34
24 -69 24 -77 0 -8 4 -15 10 -15 5 0 9 -3 8 -8 -1 -7 3 -20 27 -82 8 -19 42
-109 75 -200 34 -91 66 -176 72 -190 18 -42 25 -61 71 -185 44 -116 130 -346
243 -645 31 -80 59 -154 64 -165 14 -34 84 -219 86 -230 1 -5 16 -44 34 -85
17 -41 32 -83 33 -92 1 -10 5 -18 9 -18 4 0 7 -3 7 -7 -1 -5 0 -11 1 -15 1 -5
3 -11 5 -15 1 -5 8 -21 15 -38 15 -35 14 -31 25 -68 7 -25 11 -27 42 -22 20 3
40 8 47 12 6 4 16 8 21 9 33 6 171 47 187 55 10 5 18 8 18 5 0 -3 15 0 33 6
17 5 61 18 97 28 36 10 115 33 175 50 123 36 287 82 385 110 103 29 241 69
578 165 28 8 78 22 110 31 31 9 78 23 103 31 25 8 52 16 60 17 8 1 39 10 70
20 31 9 65 18 75 21 11 2 66 18 124 35 104 31 123 36 158 44 9 2 46 13 82 24
94 28 174 51 182 52 4 1 22 6 40 11 18 6 62 19 98 29 36 10 121 35 190 54 186
54 233 67 250 71 8 2 16 4 18 5 1 2 5 3 10 4 19 4 32 19 28 34 -3 10 -8 33
-11 52 -3 19 -11 55 -16 80 -6 25 -13 56 -15 70 -3 14 -12 59 -20 100 -9 41
-18 86 -20 100 -2 14 -7 36 -10 50 -3 13 -7 40 -10 58 -2 19 -7 38 -10 43 -3
5 -8 26 -10 47 -3 20 -7 45 -10 55 -3 10 -7 30 -9 45 -4 27 -8 43 -19 92 -8
33 -16 77 -22 119 -2 19 -6 37 -9 41 -2 4 -7 22 -10 41 -3 19 -13 68 -21 109
-9 41 -18 86 -20 100 -4 25 -20 104 -29 150 -19 89 -26 128 -30 152 -2 15 -6
35 -9 45 -7 24 -18 82 -22 113 -1 14 -3 25 -4 25 -1 0 -3 8 -5 19 -2 10 -8 39
-14 65 -6 25 -13 60 -16 76 -5 32 -12 65 -20 105 -3 14 -7 36 -10 50 -4 22
-14 71 -30 150 -8 38 -25 122 -30 150 -3 14 -7 34 -9 45 -13 60 -88 434 -92
455 -2 14 -9 45 -14 70 -5 25 -12 59 -15 75 -3 17 -7 39 -9 50 -6 28 -64 313
-71 350 -3 17 -8 41 -10 55 -2 14 -11 59 -20 100 -9 41 -18 86 -21 100 -2 14
-9 45 -14 70 -5 25 -12 56 -14 70 -3 14 -10 50 -16 80 -6 30 -13 66 -15 80 -3
14 -7 34 -9 45 -10 45 -36 172 -40 195 -2 14 -14 72 -26 130 -23 114 -27 132
-34 171 -11 67 -39 206 -44 219 -2 8 -6 22 -7 30 -1 8 -5 33 -9 55 -5 22 -10
49 -12 60 -2 11 -15 74 -28 140 -14 66 -28 136 -31 155 -3 19 -8 42 -10 50 -2
8 -6 28 -9 44 -5 26 -10 51 -31 156 -8 36 -25 120 -31 155 -3 17 -7 35 -8 40
-16 64 -20 159 -20 580 -1 444 -3 493 -19 522 -36 66 -90 109 -152 119 -39 7
-5533 12 -5540 6z"/>
</g>
</svg>
